<?xml version="1.0" encoding="UTF-8"?>
<svg width="32px" height="32px" viewBox="0 0 32 32" version="1.1" xmlns="http://www.w3.org/2000/svg" xmlns:xlink="http://www.w3.org/1999/xlink">
    <title>icon</title>
    <g id="icon" stroke="none" stroke-width="1" fill="none" fill-rule="evenodd">
        <path d="M0.0693333333,27.2841644 C0.0693333333,29.8532237 2.15582726,31.9307321 4.73607949,31.9307321 C6.02231659,31.9307321 7.22292196,31.4457717 8.06933333,30.603032 L16.5760061,22.1268311 L18.8559969,24.3968584 C18.5491315,25.5121096 18.8427156,26.7599635 19.7295581,27.6493151 L23.0361758,30.941589 C24.3558731,32.2494247 26.4689298,32.2625023 27.7693287,30.9680365 C29.0695076,29.6733516 29.0562996,27.5699726 27.7424725,26.2554155 L24.4358548,22.9631416 C23.5425551,22.0802192 22.2892645,21.7884932 21.1695214,22.0938813 L18.8895305,19.8296986 L20.3558364,18.3697534 C23.4755613,19.1530959 26.9155796,18.3362192 29.3492233,15.9669772 C31.0224542,14.3341005 31.9432705,12.2630137 32.0693333,10.1193059 L32.0693333,10.0065753 C32.0693333,9.28255708 31.4690307,8.69844749 30.7294572,8.69844749 C30.3624955,8.69844749 30.0291407,8.84500457 29.7823716,9.07696804 L29.389581,9.46206393 L28.0426606,10.7760365 C27.1956622,11.5992694 25.98926,12.0835068 24.6892279,12.0835068 C23.3961666,12.0835068 22.2556576,11.5196347 21.4091728,10.6898265 C20.5759694,9.84723288 20.0028165,8.70502283 20.0028165,7.41764384 C20.0028165,6.12325114 20.4893104,4.92200913 21.3160566,4.07868493 L22.6357539,2.73746119 L23.0223808,2.34652055 C23.2557218,2.10082192 23.4025505,1.76891324 23.4025505,1.4033242 C23.4025505,0.666958904 22.8161162,0.069260274 22.0887968,0.069260274 L21.9755016,0.069260274 C19.8226009,0.194995434 17.7425642,1.11167123 16.1025,2.77764384 C13.7228623,5.20065753 12.909104,8.62582648 13.6955658,11.7257352 L12.2229495,13.1919635 L6.0692783,7.05914155 L6.0692783,5.37965297 L2.06931499,3.38820091 L0.0693333333,5.37950685 L2.06931499,9.36219178 L3.74900313,9.36219178 L9.90913154,15.4891689 L1.40260552,23.9653699 C0.5563409,24.8081096 0.0693333333,26.0035068 0.0693333333,27.2841644 Z M3.40258717,26.9522557 C3.40258717,26.0363836 4.14935168,25.2930046 5.06928747,25.2930046 C5.98929664,25.2930046 6.73591439,26.0363836 6.73591439,26.9522557 C6.73591439,27.8681279 5.98929664,28.6118721 5.06928747,28.6118721 C4.14942506,28.6118721 3.40258717,27.8681279 3.40258717,26.9522557 Z" id="Shape" fill="#010101"></path>
    </g>
</svg>